<?xml version="1.0" encoding="UTF-8" standalone="no"?>
<!-- Generator: Adobe Illustrator 19.1.0, SVG Export Plug-In . SVG Version: 6.00 Build 0)  -->

<svg
   xmlns:dc="http://purl.org/dc/elements/1.1/"
   xmlns:cc="http://creativecommons.org/ns#"
   xmlns:rdf="http://www.w3.org/1999/02/22-rdf-syntax-ns#"
   xmlns:svg="http://www.w3.org/2000/svg"
   xmlns="http://www.w3.org/2000/svg"
   xmlns:sodipodi="http://sodipodi.sourceforge.net/DTD/sodipodi-0.dtd"
   xmlns:inkscape="http://www.inkscape.org/namespaces/inkscape"
   version="1.0"
   id="Calque_1"
   x="0px"
   y="0px"
   viewBox="0 0 960 560"
   style="enable-background:new 0 0 960 560;"
   xml:space="preserve"
   inkscape:version="0.91 r13725"
   sodipodi:docname="SpaceEuglenaLogo.svg"><metadata
     id="metadata77"><rdf:RDF><cc:Work
         rdf:about=""><dc:format>image/svg+xml</dc:format><dc:type
           rdf:resource="http://purl.org/dc/dcmitype/StillImage" /><dc:title></dc:title></cc:Work></rdf:RDF></metadata><defs
     id="defs75" /><sodipodi:namedview
     pagecolor="#ffffff"
     bordercolor="#666666"
     borderopacity="1"
     objecttolerance="10"
     gridtolerance="10"
     guidetolerance="10"
     inkscape:pageopacity="0"
     inkscape:pageshadow="2"
     inkscape:window-width="1920"
     inkscape:window-height="1017"
     id="namedview73"
     showgrid="false"
     inkscape:zoom="0.42868349"
     inkscape:cx="382.8456"
     inkscape:cy="590.76775"
     inkscape:window-x="-8"
     inkscape:window-y="-8"
     inkscape:window-maximized="1"
     inkscape:current-layer="g5" /><style
     type="text/css"
     id="style3">
	.st0{fill-rule:evenodd;clip-rule:evenodd;}
</style><g
     id="g5"><path
       class="st0"
       d="M479.8,43.3c-100,0-181.2,84.8-181.2,189.2c0,104.4,81.2,189.2,181.2,189.2S661,337,661,232.6   C661,128.2,579.8,43.3,479.8,43.3z M479.8,405.2c-91.4,0-165.4-77.2-165.4-172.6c0-95.5,73.9-172.7,165.4-172.7   c91.4,0,165.3,77.2,165.3,172.7C645.1,328,571.2,405.2,479.8,405.2z"
       id="path7" /><path
       class="st0"
       d="M534.8,348.1l-20.5,3.9l-19.5-10.9l-5-17.1l18.2-33.7l4-47.4l3.2-43l-3.7-50.2L497.3,121l-7.6-18.3l-4.7-5.6   l-29.3-3.9l-9.4,18.7l-14.4,43l2.1,59.8l24.1,78.9l25.9,30.7l7.6,18.8l21.8,12.7l22-3.8l21.8-23.8l11.5-4.1l0.5,8.8l-39.3,33.1   l-1.9,10l14.3-1l-0.5-1.9l-10.7,0.8l0.8-5.9L572,334v-14l-18.3,6.5L534.8,348.1z M482.6,163.6l-20.7,1.8l-15.1-9.6   c2.3-5.6,10.4-15.9,19.8-17.2l-6,5l-1.7,4.3l1.4,4.8c1.4,4.9,10.5,6.1,10.5,6.1l10.2-5.6l1.3-11.8l9.8,9L482.6,163.6z"
       id="path9" /><path
       class="st0"
       d="M530.1,334.4l14.4-27.7L545,276l-23.7-29.8l-3.9,37c0,0,10.5,15.2,11.9,27.3   C530.8,322.4,530.1,334.4,530.1,334.4z"
       id="path11" /><path
       class="st0"
       d="M448.7,288.5l-12.4-34.3l-20,24.9c0,0-3.4,10.4,0.4,32c3.7,21.7,22.9,28.6,22.9,28.6l-3.6-10l-2.3-11.1   l2.1-12.2L448.7,288.5z"
       id="path13" /></g></svg>