  0
SECTION
  2
HEADER
  9
$ACADVER
  1
AC1014
  9
$HANDSEED
  5
FFFF
  9
$MEASUREMENT
 70
     1
  0
ENDSEC
  0
SECTION
  2
TABLES
  0
TABLE
  2
VPORT
  5
8
330
0
100
AcDbSymbolTable
 70
     4
  0
VPORT
  5
2E
330
8
100
AcDbSymbolTableRecord
100
AcDbViewportTableRecord
  2
*ACTIVE
 70
     0
 10
0.0
 20
0.0
 11
1.0
 21
1.0
 12
210.0
 22
148.5
 13
0.0
 23
0.0
 14
10.0
 24
10.0
 15
10.0
 25
10.0
 16
0.0
 26
0.0
 36
1.0
 17
0.0
 27
0.0
 37
0.0
 40
341.0
 41
1.24
 42
50.0
 43
0.0
 44
0.0
 50
0.0
 51
0.0
 71
     0
 72
   100
 73
     1
 74
     3
 75
     0
 76
     0
 77
     0
 78
     0
  0
ENDTAB
  0
TABLE
  2
LTYPE
  5
5
330
0
100
AcDbSymbolTable
 70
     1
  0
LTYPE
  5
14
330
5
100
AcDbSymbolTableRecord
100
AcDbLinetypeTableRecord
  2
BYBLOCK
 70
     0
  3

 72
    65
 73
     0
 40
0.0
  0
LTYPE
  5
15
330
5
100
AcDbSymbolTableRecord
100
AcDbLinetypeTableRecord
  2
BYLAYER
 70
     0
  3

 72
    65
 73
     0
 40
0.0
  0
LTYPE
  5
16
330
5
100
AcDbSymbolTableRecord
100
AcDbLinetypeTableRecord
  2
CONTINUOUS
 70
     0
  3
Solid line
 72
    65
 73
     0
 40
0.0
  0
ENDTAB
  0
TABLE
  2
LAYER
  5
2
100
AcDbSymbolTable
 70
2
  0
LAYER
  5
50
100
AcDbSymbolTableRecord
100
AcDbLayerTableRecord
  2
0
 70
0
  6
CONTINUOUS
  0
LAYER
  5
51
100
AcDbSymbolTableRecord
100
AcDbLayerTableRecord
  2
laserAcrylic
 70
0
  6
CONTINUOUS
  0
ENDTAB
  0
TABLE
  2
STYLE
  5
3
330
0
100
AcDbSymbolTable
 70
     1
  0
STYLE
  5
11
330
3
100
AcDbSymbolTableRecord
100
AcDbTextStyleTableRecord
  2
STANDARD
 70
     0
 40
0.0
 41
1.0
 50
0.0
 71
     0
 42
2.5
  3
txt
  4

  0
ENDTAB
  0
TABLE
  2
VIEW
  5
6
330
0
100
AcDbSymbolTable
 70
     0
  0
ENDTAB
  0
TABLE
  2
UCS
  5
7
330
0
100
AcDbSymbolTable
 70
     0
  0
ENDTAB
  0
TABLE
  2
APPID
  5
9
330
0
100
AcDbSymbolTable
 70
     2
  0
APPID
  5
12
330
9
100
AcDbSymbolTableRecord
100
AcDbRegAppTableRecord
  2
ACAD
 70
     0
  0
ENDTAB
  0
TABLE
  2
DIMSTYLE
  5
A
330
0
100
AcDbSymbolTable
 70
     1
  0
DIMSTYLE
105
27
330
A
100
AcDbSymbolTableRecord
100
AcDbDimStyleTableRecord
  2
ISO-25
 70
     0
  3

  4

  5

  6

  7

 40
1.0
 41
2.5
 42
0.625
 43
3.75
 44
1.25
 45
0.0
 46
0.0
 47
0.0
 48
0.0
140
2.5
141
2.5
142
0.0
143
0.03937007874016
144
1.0
145
0.0
146
1.0
147
0.625
 71
     0
 72
     0
 73
     0
 74
     0
 75
     0
 76
     0
 77
     1
 78
     8
170
     0
171
     3
172
     1
173
     0
174
     0
175
     0
176
     0
177
     0
178
     0
270
     2
271
     2
272
     2
273
     2
274
     3
340
11
275
     0
280
     0
281
     0
282
     0
283
     0
284
     8
285
     0
286
     0
287
     3
288
     0
  0
ENDTAB
  0
TABLE
  2
BLOCK_RECORD
  5
1
330
0
100
AcDbSymbolTable
 70
     1
  0
BLOCK_RECORD
  5
1F
330
1
100
AcDbSymbolTableRecord
100
AcDbBlockTableRecord
  2
*MODEL_SPACE
  0
BLOCK_RECORD
  5
1B
330
1
100
AcDbSymbolTableRecord
100
AcDbBlockTableRecord
  2
*PAPER_SPACE
  0
ENDTAB
  0
ENDSEC
  0
SECTION
  2
BLOCKS
  0
BLOCK
  5
20
330
1F
100
AcDbEntity
  8
0
100
AcDbBlockBegin
  2
*MODEL_SPACE
 70
     0
 10
0.0
 20
0.0
 30
0.0
  3
*MODEL_SPACE
  1

  0
ENDBLK
  5
21
330
1F
100
AcDbEntity
  8
0
100
AcDbBlockEnd
  0
BLOCK
  5
1C
330
1B
100
AcDbEntity
 67
     1
  8
0
100
AcDbBlockBegin
  2
*PAPER_SPACE
  1

  0
ENDBLK
  5
1D
330
1B
100
AcDbEntity
 67
     1
  8
0
100
AcDbBlockEnd
  0
ENDSEC
  0
SECTION
  2
ENTITIES
  0
LINE
  5
100
100
AcDbEntity
  8
laserAcrylic
 62
2
100
AcDbLine
 10
39.346772
 20
31.163705
 30
0.0
 11
39.346772
 21
81.146611
 31
0.0
  0
LINE
  5
101
100
AcDbEntity
  8
laserAcrylic
 62
2
100
AcDbLine
 10
39.346772
 20
31.163705
 30
0.0
 11
14.372405
 21
31.163705
 31
0.0
  0
LINE
  5
102
100
AcDbEntity
  8
laserAcrylic
 62
2
100
AcDbLine
 10
14.372265
 20
31.163705
 30
0.0
 11
14.372265
 21
81.146611
 31
0.0
  0
LINE
  5
103
100
AcDbEntity
  8
laserAcrylic
 62
2
100
AcDbLine
 10
39.346772
 20
81.146728
 30
0.0
 11
14.372405
 21
81.146728
 31
0.0
  0
LINE
  5
104
100
AcDbEntity
  8
laserAcrylic
 62
2
100
AcDbLine
 10
65.501044
 20
56.167903
 30
0.0
 11
40.501094
 21
56.167903
 31
0.0
  0
LINE
  5
105
100
AcDbEntity
  8
laserAcrylic
 62
2
100
AcDbLine
 10
40.501094
 20
56.167903
 30
0.0
 11
40.501094
 21
81.142513
 31
0.0
  0
LINE
  5
106
100
AcDbEntity
  8
laserAcrylic
 62
2
100
AcDbLine
 10
40.501094
 20
81.142513
 30
0.0
 11
65.501044
 21
81.142513
 31
0.0
  0
LINE
  5
107
100
AcDbEntity
  8
laserAcrylic
 62
2
100
AcDbLine
 10
65.501044
 20
81.142513
 30
0.0
 11
65.501044
 21
56.167903
 31
0.0
  0
LINE
  5
108
100
AcDbEntity
  8
laserAcrylic
 62
2
100
AcDbLine
 10
65.501044
 20
56.167903
 30
0.0
 11
65.501044
 21
56.167903
 31
0.0
  0
SPLINE
  5
109
100
AcDbEntity
  8
laserAcrylic
 62
2
100
AcDbSpline
 70
8
 71
3
 72
8
 73
4
 74
0
 40
0
 40
0
 40
0
 40
0
 40
1
 40
1
 40
1
 40
1
 10
45.771368
 20
77.719594
 30
0.0
 10
45.771368
 20
76.658593
 30
0.0
 10
44.911641
 20
75.800848
 30
0.0
 10
43.851827
 20
75.800848
 30
0.0
  0
SPLINE
  5
10a
100
AcDbEntity
  8
laserAcrylic
 62
2
100
AcDbSpline
 70
8
 71
3
 72
8
 73
4
 74
0
 40
0
 40
0
 40
0
 40
0
 40
1
 40
1
 40
1
 40
1
 10
43.851827
 20
75.800848
 30
0.0
 10
42.791200
 20
75.800848
 30
0.0
 10
41.931473
 20
76.658593
 30
0.0
 10
41.931473
 20
77.719594
 30
0.0
  0
SPLINE
  5
10b
100
AcDbEntity
  8
laserAcrylic
 62
2
100
AcDbSpline
 70
8
 71
3
 72
8
 73
4
 74
0
 40
0
 40
0
 40
0
 40
0
 40
1
 40
1
 40
1
 40
1
 10
41.931473
 20
77.719594
 30
0.0
 10
41.931473
 20
78.780595
 30
0.0
 10
42.791200
 20
79.640779
 30
0.0
 10
43.851827
 20
79.640779
 30
0.0
  0
SPLINE
  5
10c
100
AcDbEntity
  8
laserAcrylic
 62
2
100
AcDbSpline
 70
8
 71
3
 72
8
 73
4
 74
0
 40
0
 40
0
 40
0
 40
0
 40
1
 40
1
 40
1
 40
1
 10
43.851827
 20
79.640779
 30
0.0
 10
44.911641
 20
79.640779
 30
0.0
 10
45.771368
 20
78.780595
 30
0.0
 10
45.771368
 20
77.719594
 30
0.0
  0
LINE
  5
10d
100
AcDbEntity
  8
laserAcrylic
 62
2
100
AcDbLine
 10
45.771368
 20
77.719594
 30
0.0
 11
45.771368
 21
77.719594
 31
0.0
  0
SPLINE
  5
10e
100
AcDbEntity
  8
laserAcrylic
 62
2
100
AcDbSpline
 70
8
 71
3
 72
8
 73
4
 74
0
 40
0
 40
0
 40
0
 40
0
 40
1
 40
1
 40
1
 40
1
 10
63.973318
 20
59.499232
 30
0.0
 10
63.973318
 20
58.438231
 30
0.0
 10
63.113592
 20
57.580487
 30
0.0
 10
62.053778
 20
57.580487
 30
0.0
  0
SPLINE
  5
10f
100
AcDbEntity
  8
laserAcrylic
 62
2
100
AcDbSpline
 70
8
 71
3
 72
8
 73
4
 74
0
 40
0
 40
0
 40
0
 40
0
 40
1
 40
1
 40
1
 40
1
 10
62.053778
 20
57.580487
 30
0.0
 10
60.993150
 20
57.580487
 30
0.0
 10
60.133424
 20
58.438231
 30
0.0
 10
60.133424
 20
59.499232
 30
0.0
  0
SPLINE
  5
110
100
AcDbEntity
  8
laserAcrylic
 62
2
100
AcDbSpline
 70
8
 71
3
 72
8
 73
4
 74
0
 40
0
 40
0
 40
0
 40
0
 40
1
 40
1
 40
1
 40
1
 10
60.133424
 20
59.499232
 30
0.0
 10
60.133424
 20
60.560234
 30
0.0
 10
60.993150
 20
61.420417
 30
0.0
 10
62.053778
 20
61.420417
 30
0.0
  0
SPLINE
  5
111
100
AcDbEntity
  8
laserAcrylic
 62
2
100
AcDbSpline
 70
8
 71
3
 72
8
 73
4
 74
0
 40
0
 40
0
 40
0
 40
0
 40
1
 40
1
 40
1
 40
1
 10
62.053778
 20
61.420417
 30
0.0
 10
63.113592
 20
61.420417
 30
0.0
 10
63.973318
 20
60.560234
 30
0.0
 10
63.973318
 20
59.499232
 30
0.0
  0
LINE
  5
112
100
AcDbEntity
  8
laserAcrylic
 62
2
100
AcDbLine
 10
63.973318
 20
59.499232
 30
0.0
 11
63.973318
 21
59.499232
 31
0.0
  0
LINE
  5
113
100
AcDbEntity
  8
laserAcrylic
 62
2
100
AcDbLine
 10
13.185720
 20
30.985417
 30
0.0
 11
13.185720
 21
80.968323
 31
0.0
  0
LINE
  5
114
100
AcDbEntity
  8
laserAcrylic
 62
2
100
AcDbLine
 10
13.185720
 20
30.985417
 30
0.0
 11
-11.788647
 21
30.985417
 31
0.0
  0
LINE
  5
115
100
AcDbEntity
  8
laserAcrylic
 62
2
100
AcDbLine
 10
-11.788788
 20
30.985417
 30
0.0
 11
-11.788788
 21
80.968323
 31
0.0
  0
LINE
  5
116
100
AcDbEntity
  8
laserAcrylic
 62
2
100
AcDbLine
 10
13.185720
 20
80.968440
 30
0.0
 11
-11.788647
 21
80.968440
 31
0.0
  0
LINE
  5
117
100
AcDbEntity
  8
laserAcrylic
 62
2
100
AcDbLine
 10
65.501044
 20
30.019239
 30
0.0
 11
40.501094
 21
30.019239
 31
0.0
  0
LINE
  5
118
100
AcDbEntity
  8
laserAcrylic
 62
2
100
AcDbLine
 10
40.501094
 20
30.019239
 30
0.0
 11
40.501094
 21
54.993849
 31
0.0
  0
LINE
  5
119
100
AcDbEntity
  8
laserAcrylic
 62
2
100
AcDbLine
 10
40.501094
 20
54.993849
 30
0.0
 11
65.501044
 21
54.993849
 31
0.0
  0
LINE
  5
11a
100
AcDbEntity
  8
laserAcrylic
 62
2
100
AcDbLine
 10
65.501044
 20
54.993849
 30
0.0
 11
65.501044
 21
30.019239
 31
0.0
  0
LINE
  5
11b
100
AcDbEntity
  8
laserAcrylic
 62
2
100
AcDbLine
 10
65.501044
 20
30.019239
 30
0.0
 11
65.501044
 21
30.019239
 31
0.0
  0
SPLINE
  5
11c
100
AcDbEntity
  8
laserAcrylic
 62
2
100
AcDbSpline
 70
8
 71
3
 72
8
 73
4
 74
0
 40
0
 40
0
 40
0
 40
0
 40
1
 40
1
 40
1
 40
1
 10
45.771368
 20
51.570931
 30
0.0
 10
45.771368
 20
50.509930
 30
0.0
 10
44.911641
 20
49.652185
 30
0.0
 10
43.851827
 20
49.652185
 30
0.0
  0
SPLINE
  5
11d
100
AcDbEntity
  8
laserAcrylic
 62
2
100
AcDbSpline
 70
8
 71
3
 72
8
 73
4
 74
0
 40
0
 40
0
 40
0
 40
0
 40
1
 40
1
 40
1
 40
1
 10
43.851827
 20
49.652185
 30
0.0
 10
42.791200
 20
49.652185
 30
0.0
 10
41.931473
 20
50.509930
 30
0.0
 10
41.931473
 20
51.570931
 30
0.0
  0
SPLINE
  5
11e
100
AcDbEntity
  8
laserAcrylic
 62
2
100
AcDbSpline
 70
8
 71
3
 72
8
 73
4
 74
0
 40
0
 40
0
 40
0
 40
0
 40
1
 40
1
 40
1
 40
1
 10
41.931473
 20
51.570931
 30
0.0
 10
41.931473
 20
52.631932
 30
0.0
 10
42.791200
 20
53.492116
 30
0.0
 10
43.851827
 20
53.492116
 30
0.0
  0
SPLINE
  5
11f
100
AcDbEntity
  8
laserAcrylic
 62
2
100
AcDbSpline
 70
8
 71
3
 72
8
 73
4
 74
0
 40
0
 40
0
 40
0
 40
0
 40
1
 40
1
 40
1
 40
1
 10
43.851827
 20
53.492116
 30
0.0
 10
44.911641
 20
53.492116
 30
0.0
 10
45.771368
 20
52.631932
 30
0.0
 10
45.771368
 20
51.570931
 30
0.0
  0
LINE
  5
120
100
AcDbEntity
  8
laserAcrylic
 62
2
100
AcDbLine
 10
45.771368
 20
51.570931
 30
0.0
 11
45.771368
 21
51.570931
 31
0.0
  0
SPLINE
  5
121
100
AcDbEntity
  8
laserAcrylic
 62
2
100
AcDbSpline
 70
8
 71
3
 72
8
 73
4
 74
0
 40
0
 40
0
 40
0
 40
0
 40
1
 40
1
 40
1
 40
1
 10
63.973318
 20
33.350569
 30
0.0
 10
63.973318
 20
32.289568
 30
0.0
 10
63.113592
 20
31.431823
 30
0.0
 10
62.053778
 20
31.431823
 30
0.0
  0
SPLINE
  5
122
100
AcDbEntity
  8
laserAcrylic
 62
2
100
AcDbSpline
 70
8
 71
3
 72
8
 73
4
 74
0
 40
0
 40
0
 40
0
 40
0
 40
1
 40
1
 40
1
 40
1
 10
62.053778
 20
31.431823
 30
0.0
 10
60.993150
 20
31.431823
 30
0.0
 10
60.133424
 20
32.289568
 30
0.0
 10
60.133424
 20
33.350569
 30
0.0
  0
SPLINE
  5
123
100
AcDbEntity
  8
laserAcrylic
 62
2
100
AcDbSpline
 70
8
 71
3
 72
8
 73
4
 74
0
 40
0
 40
0
 40
0
 40
0
 40
1
 40
1
 40
1
 40
1
 10
60.133424
 20
33.350569
 30
0.0
 10
60.133424
 20
34.411570
 30
0.0
 10
60.993150
 20
35.271754
 30
0.0
 10
62.053778
 20
35.271754
 30
0.0
  0
SPLINE
  5
124
100
AcDbEntity
  8
laserAcrylic
 62
2
100
AcDbSpline
 70
8
 71
3
 72
8
 73
4
 74
0
 40
0
 40
0
 40
0
 40
0
 40
1
 40
1
 40
1
 40
1
 10
62.053778
 20
35.271754
 30
0.0
 10
63.113592
 20
35.271754
 30
0.0
 10
63.973318
 20
34.411570
 30
0.0
 10
63.973318
 20
33.350569
 30
0.0
  0
LINE
  5
125
100
AcDbEntity
  8
laserAcrylic
 62
2
100
AcDbLine
 10
63.973318
 20
33.350569
 30
0.0
 11
63.973318
 21
33.350569
 31
0.0
  0
ENDSEC
  0
SECTION
  2
OBJECTS
  0
DICTIONARY
  5
C
330
0
100
AcDbDictionary
  3
ACAD_GROUP
350
D
  3
ACAD_MLINESTYLE
350
17
  0
DICTIONARY
  5
D
330
C
100
AcDbDictionary
  0
DICTIONARY
  5
1A
330
C
100
AcDbDictionary
  0
DICTIONARY
  5
17
330
C
100
AcDbDictionary
  3
STANDARD
350
18
  0
DICTIONARY
  5
19
330
C
100
AcDbDictionary
  0
ENDSEC
  0
EOF
